# Blender 3.5.0
# www.blender.org
mtllib Icosahedron.mtl
o Icosahedron
v 3.000000 4.854100 0.000000
v -3.000000 4.854100 0.000000
v 0.000000 3.000000 4.854100
v 4.854100 0.000000 3.000000
v 4.854100 0.000000 -3.000000
v 3.000000 -4.854100 0.000000
v 0.000000 3.000000 -4.854100
v 0.000000 -3.000000 -4.854100
v -4.854100 0.000000 -3.000000
v -3.000000 -4.854100 0.000000
v -4.854100 0.000000 3.000000
v 0.000000 -3.000000 4.854100
vn -0.0000 0.9342 0.3568
vn 0.5774 0.5774 0.5774
vn 0.9342 0.3568 -0.0000
vn 0.9342 -0.3568 -0.0000
vn -0.0000 0.9342 -0.3568
vn 0.5774 0.5774 -0.5774
vn 0.3568 -0.0000 -0.9342
vn 0.5774 -0.5774 -0.5774
vn -0.5774 0.5774 -0.5774
vn -0.3568 -0.0000 -0.9342
vn -0.5774 -0.5774 -0.5774
vn -0.0000 -0.9342 -0.3568
vn -0.9342 0.3568 -0.0000
vn -0.9342 -0.3568 -0.0000
vn -0.5774 -0.5774 0.5774
vn -0.0000 -0.9342 0.3568
vn -0.5774 0.5774 0.5774
vn -0.3568 -0.0000 0.9342
vn 0.3568 -0.0000 0.9342
vn 0.5774 -0.5774 0.5774
usemtl Icosahedron
s 0
f 1//1 2//1 3//1
f 4//2 1//2 3//2
f 5//3 1//3 4//3
f 6//4 5//4 4//4
f 7//5 2//5 1//5
f 5//6 7//6 1//6
f 8//7 7//7 5//7
f 6//8 8//8 5//8
f 9//9 2//9 7//9
f 8//10 9//10 7//10
f 10//11 9//11 8//11
f 6//12 10//12 8//12
f 11//13 2//13 9//13
f 10//14 11//14 9//14
f 12//15 11//15 10//15
f 6//16 12//16 10//16
f 3//17 2//17 11//17
f 12//18 3//18 11//18
f 4//19 3//19 12//19
f 6//20 4//20 12//20
